DataType=double
version=3
OpenSimVersion=4.5-2023-11-26-efcdfd3eb
endheader
time	EMG01_right_gast_med	EMG02_right_glut_max	EMG03_left_gast_med	EMG04_left_glut_max	EMG05_right_glut_med	EMG06_right_bic_fem	EMG07_right_rect_fem	EMG08_right_vast_lat	EMG09_right_vast_med	EMG10_right_tens_fasc_lat	EMG11_left_glut_med	EMG12_left_bic_fem	EMG13_left_rect_fem	EMG14_left_vast_lat	EMG15_left_vast_med	EMG16_left_tens_fasc_lat
1.52	127.3781778044777	11.31732788709943	-6.590006441560258	51.48864111115981	26.13407367920886	3.000912555742136	3.218614419090021	4.363156143003927	30.80063441746134	29.79587246765475	8.685941249485115	11.7754092622542	1.773829766530624	5.539384752203384	4.458057073852869	49.09713399994575
1.53	129.6585604848377	10.05644946071374	-5.75895030898461	49.74712316555422	25.98142033461621	3.230724360907537	2.950766460820251	4.126812656379562	27.77017414426954	27.55515093330193	9.35366519816186	12.74153810285387	1.992307744214218	6.052882023159821	4.077182613982304	49.82762416151284
1.54	131.7160426965254	8.859541921955138	-4.832527946965239	47.95761612406871	26.27157767483998	3.579851081225343	2.714708767828246	3.925760023368825	24.91147655236602	25.3978987064063	10.07729624830096	13.73771475725998	2.24271364036054	6.642778637148459	3.874594691027552	50.66494636100177
1.55	133.5377555382094	7.736166622139545	-3.825789616160003	46.14106820595075	27.02649571896771	4.033738421639659	2.51246260097853	3.760118305698536	22.24093853915823	23.34701800668244	10.85626931090595	14.75854809421311	2.52471466441383	7.308468284864166	3.866863344620138	51.61776043598439
1.56	135.1099181370424	6.695438654253775	-2.752556938777678	44.31804473981884	28.26395221960943	4.577557649860381	2.345716960188508	3.62964965846635	19.77239681917671	21.42357577733389	11.68940519764249	15.79829653922849	2.837672314302737	8.048363954405037	4.068781310251158	52.69212300786025
1.57	136.4177691147607	5.745979439949748	-1.625376243743908	42.50853313890543	29.99704381525443	5.196386682379225	2.215818569748309	3.533781049036233	17.51710587913975	19.64658563062452	12.57489772931987	16.8509117183704	3.180620947449494	8.859870945552599	4.493114199558621	53.89130619967101
1.58	137.4455908040167	4.895872332777367	-0.455502013183015	40.73176445499367	32.23370708291804	5.875381481820434	2.123764344163447	3.471629479569506	15.48374517694718	18.03282639162963	13.51030960554763	17.91007978016381	3.552249051803733	9.739374661138816	5.150369433224784	55.21567326667237
1.59	138.1768382886394	4.152620278628419	0.7470922657637267	39.00604781686747	34.97628192597762	6.599937449591137	2.070196013930684	3.442028871633106	13.67845291353839	16.59669729117498	14.4925770557571	18.96925918998918	3.950884023505058	10.68224436737511	6.04858697891149	56.66261267583092
1.6	138.594380959124	3.523104406547366	1.97367892608812	37.34861429704078	38.22112879082844	7.355840385086968	2.055396673953945	3.443557731570198	12.10488363468106	15.35010922595469	15.51802299934409	20.0217149142986	4.374481380093686	11.68285381455993	7.193155049690104	58.22653168223014
1.61	138.6808588322811	3.013542345633282	3.216719998551901	35.77546779691761	41.95830997580023	8.129406380257855	2.079289129828512	3.474566748885109	10.76428693780185	14.30241101031783	16.58237798941762	21.06054998930716	4.82061938846366	12.73461926831708	8.586653943243075	59.89891032367972
1.62	138.4191494526076	2.629445158365335	4.469793698537251	34.3012422170501	46.17134400038434	8.907609820363058	2.14143601799708	3.533205615259241	9.655604652417287	13.4603492019115	17.68080767649605	22.07873607610795	5.286500045353961	13.83005508778879	10.2287310953739	61.66841678336618
1.63	137.7929341363108	2.375572069173902	5.727507169764145	32.93906612154266	50.8370408502423	9.678198506050743	2.241041739232102	3.617448579268734	8.775583979331385	12.82805991108046	18.80794512574541	23.06914472864667	5.768957245783776	14.96084648660671	12.11601021062031	63.52108476015996
1.64	136.7873450146024	2.255882583787944	6.985399155252779	31.70043780506846	55.92542512327506	10.42979484816127	2.376956266736066	3.725118502526656	8.118904122916943	12.40709096549788	19.95792629052106	24.02458106883741	6.264472847176588	16.11793857321649	14.24203706797997	65.44055238067413
1.65	135.3896671637721	2.273486048416632	8.239836222283472	30.59511481837521	61.39975381117011	11.15198221700741	2.547680878089155	3.85390937594178	7.678313920238293	12.19645278772276	21.12442728752376	24.93782163879953	6.769201182506629	17.29164027372082	16.59726428495258	67.40836016259418
1.66	133.5900636914496	2.430589147129529	9.487906059935357	29.63102251876389	67.2166355010654	11.83537592809412	2.751375832126751	4.001407359763204	7.444777938624243	12.19269628061401	22.30070258826641	25.80165835729877	7.279002372676469	18.47174135454918	19.16907692254093	69.40430285157919
1.67	131.3822868754652	2.728442278241712	10.72731120575612	28.81418606217475	73.32625768742926	12.47167891851598	2.985869991125594	4.165110445739646	7.407628545632685	12.39001592561469	23.47962373028153	26.60895053760025	7.789484532581446	19.64764048897384	21.94186032660045	71.40682713186563
1.68	128.764336113141	3.167286155900605	11.95626634476898	28.14868955014703	79.6727281861977	13.05372266049754	3.248672394926595	4.342446834903313	7.554721575788317	12.78037620322335	24.65371889221453	27.35268665259797	8.296054674734449	20.8084821055667	24.89711109054177	73.39346484462794
1.69	125.7390238096731	3.746300292225155	13.17340204998837	27.63666502802116	86.19453532514437	13.57549408470966	3.536985835421508	4.530792114709151	7.872593462579551	13.35365931502171	25.81521478764865	28.02605691129736	8.793977808302349	21.94329955061884	28.01359154546089	75.34128978732993
1.7	122.3144133834626	4.463555197336792	14.37767750282181	27.27831286293942	92.82512997472455	14.03214926101409	3.847722557706367	4.727485340391652	8.34661808971943	14.0978320421069	26.95608341650619	28.62253679974274	9.278443417623818	23.04116184877742	31.26752770873136	77.22738536339948
1.71	118.5040992899702	5.31597021181695	15.56830437302468	27.07195377130502	99.4936307742922	14.42001444528061	4.177522332880427	4.929844202357479	8.961162065894118	14.99912948771589	28.06809673209001	29.13598067714873	9.744638183148391	24.09132109204833	34.63285005499396	79.02931006751895
1.72	114.3273071100795	6.299278912788553	16.74468366073449	27.01411155751642	106.1256519483555	14.73657500818237	4.522773304857157	5.135179596277017	9.699737558394691	16.04225338910123	29.14289208192975	29.56072344987101	10.18782349749556	25.08335735284074	38.08147571724211	80.72554785247725
1.73	109.808801977575	7.408004062286991	17.90635686474478	27.09962467595405	112.6442505413292	14.98045286393637	4.879636166710376	5.34081007417809	10.54515226541963	17.21058250551962	30.17205053446601	29.89168735214793	10.60341608122689	26.00731819372972	41.5836297631454	82.29593078446007
1.74	104.9786060640274	8.635444107755132	19.05297231529502	27.32178406096088	118.9709863811085	15.15137336128771	5.244072302732383	5.544076785059191	11.47965660897766	18.48639227583638	31.14718912947497	30.12448999011953	10.98706986136179	26.85385047192445	45.10820211177791	83.72202226221469
1.75	99.87153970056475	9.97367326748264	20.18426694954177	27.67249405918225	125.0270835345906	15.25012303243913	5.611876507579217	5.742359557797333	12.48508873009659	19.85108067088822	32.06006688860372	30.25554916151938	11.33475721111373	27.61432305220641	48.62313556738122	84.98745080194462
1.76	94.52661269235936	11.41355720241211	21.30006326834801	28.14245251154528	130.7346767219696	15.27849984802184	5.97871477763414	5.933094719714807	13.54301830729456	21.2853970951155	32.90270324470661	30.28217971848151	11.64284756119766	28.28093977192995	52.0958394336944	86.07818688692319
1.77	88.98629902669755	12.94478617690716	22.40028066536015	28.72134504823548	136.0181205295025	15.23925753291643	6.340167487822257	6.113795111468275	14.63489060131638	22.76967122640313	33.66750639699863	30.20267800800216	11.90818122014583	28.84684217596098	55.49362237226176	86.98275800575874
1.78	83.29572937763118	14.55592743525513	23.484959702024	29.39804764338052	140.8053337368554	15.13604510109254	6.691778042437142	6.282072598865927	15.74217239796316	24.28403857732578	34.34740789511005	30.01639009975379	12.12813607173226	29.30620126080278	58.78413768452742	87.69239921618214
1.79	77.50183409467492	16.23449825558662	24.55429719485438	30.16083067513486	145.0291461023679	14.97334222363249	7.02910684088102	6.435663204348367	16.84650155878979	25.80865923239963	34.93599856894024	29.72376079326785	12.30068483958041	29.65429713047357	61.93583384033749	88.20113817443742
1.8	71.65246677907167	17.96706079626459	25.60868923009408	30.99755743948847	148.6286107470198	14.75639050600442	7.347790137071954	6.572454764717468	17.92984166913414	27.3239259395962	35.42766005488495	29.32636110391834	12.4244408991662	29.88758534744828	64.91840246282139	88.50581441052412
1.81	65.79553557651246	19.73933944001958	26.64877858569754	31.89587041833206	151.5502419219962	14.49112035139032	7.643603096892985	6.690516774762234	18.97464286984542	28.81065802332254	35.81768601102353	28.8268927066338	12.49869102886013	30.00374882305684	67.70321494060177	88.60603287727537
1.82	59.97816583417779	21.53636085941633	27.67550278986687	32.84335942684219	153.7491362097569	14.1840729609127	7.912526088277175	6.788131844282649	19.96400942141485	30.25027881646471	36.10238790160704	28.2291688589575	12.52341385673735	30.00173410665154	70.26373741741018	88.50405229039836
1.83	54.24591392249615	23.34261643318101	28.69013938859871	33.8277068583625	155.1899365959239	13.84231727938458	8.15081300130225	6.863828009829851	20.88187387572547	31.6249762630305	36.27918175039161	27.53807250021081	12.49928316265671	29.88177082934693	72.57591222393162	88.20461020121988
1.84	48.64204818345237	25.14224589989697	29.69434589276749	34.83680674855628	155.8476039842236	13.4733623458364	8.355060192747523	6.916411000017415	21.71317696484894	32.9178481368867	36.34665375087559	26.7594931612018	12.4276558585726	29.64537309186042	74.61849252646698	87.71468888588129
1.85	43.20690941260947	26.91924025053845	30.6901930154651	35.85885642461219	155.7079686699229	13.08506637352997	8.522274450594596	6.944995462685009	22.4440515602105	34.11303412479129	36.30460334069222	25.90024477347979	12.31054536864258	29.29532201401799	76.37331752733624	87.04322855046921
1.86	37.97736005086445	28.65766090225893	31.68019073137471	36.88242176101897	154.7680438975783	12.68554462596392	8.649938172006598	6.949034152791624	23.06200838474917	35.19583686526613	36.15406232141466	24.96796658067121	12.15058192947234	28.83562935543365	77.82551902568547	86.20079703933818
1.87	32.98632827142451	30.34187125502708	32.66730700618558	37.89647911281725	153.0360942012695	12.28307849155916	8.736069781742325	6.928344149455628	23.55612057762951	36.15283361272883	35.89728850773848	23.97100955351782	11.95096175783185	28.27148274623484	78.96365584843196	85.1992280373707
1.88	28.26245034720041	31.9567758550967	33.65497871084784	38.89043867930731	150.5314618006755	11.8860280519403	8.779277310074093	6.883129269169559	23.91720365470184	36.97197996388377	35.5377328080875	22.91831118986093	11.7153871244562	27.60917353920907	79.77977864479149	84.05124204493406
